<svg width="24" height="24" viewBox="0 0 24 24" fill="none" xmlns="http://www.w3.org/2000/svg">
<path opacity="0.24" d="M17 17.8705C17.0001 17.9992 16.9626 18.1247 16.8925 18.2303C16.8224 18.3359 16.7232 18.4164 16.6081 18.461C16.493 18.5056 16.3677 18.5121 16.2489 18.4797C16.1302 18.4473 16.0238 18.3776 15.9441 18.2798L11.1444 12.4093C11.0512 12.2953 11 12.1501 11 12C11 11.8499 11.0512 11.7047 11.1444 11.5907L15.9441 5.72019C16.0238 5.62244 16.1302 5.55267 16.2489 5.52028C16.3677 5.48788 16.493 5.49443 16.6081 5.53903C16.7232 5.58363 16.8224 5.66414 16.8925 5.76971C16.9626 5.87528 17.0001 6.00084 17 6.12945V17.8705Z" fill="#FAFAFA"/>
<path d="M12 18.5L7.14601 12.4236C7.05179 12.3056 7 12.1554 7 12C7 11.8446 7.05179 11.6944 7.14601 11.5764L12 5.5" stroke="#FAFAFA" stroke-width="1.5" stroke-linecap="round"/>
</svg>
