<svg width="24" height="24" viewBox="0 0 24 24" fill="none" xmlns="http://www.w3.org/2000/svg">
<path opacity="0.32" d="M13.7102 6.39064L6.66321 13.4376C6.43821 13.6626 6.32621 13.7746 6.25521 13.9136C6.18321 14.0526 6.15721 14.2096 6.10521 14.5236L4.78242 18.6579C4.73042 18.9719 4.70342 19.1299 4.79442 19.2209C4.88542 19.3119 5.04342 19.2849 5.35742 19.2329L9.4616 17.879C9.7746 17.827 9.9316 17.801 10.0716 17.729C10.2096 17.658 10.3216 17.546 10.5466 17.321L17.5936 10.274C18.6106 9.25704 19.1196 8.74804 19.2316 8.13704C19.2766 7.89704 19.2766 7.65104 19.2316 7.41104C19.1196 6.80004 19.1854 6.86486 18.1674 5.84786C17.1494 4.83086 17.1842 4.86464 16.5732 4.75264C16.3332 4.70835 16.0872 4.70835 15.8472 4.75264C15.2362 4.86464 14.7272 5.37264 13.7102 6.39064Z" fill="#FCFCFC"/>
<path d="M12.5133 7.60767L6.67325 13.4477C6.44825 13.6727 6.33625 13.7847 6.26525 13.9237C6.19325 14.0627 6.16725 14.2197 6.11525 14.5337L4.78242 18.6578C4.73042 18.9718 4.70342 19.1298 4.79442 19.2208C4.88542 19.3118 5.04342 19.2848 5.35742 19.2328L9.46877 17.8862C9.78177 17.8342 9.93877 17.8082 10.0788 17.7362C10.2168 17.6652 10.3288 17.5532 10.5538 17.3282L16.3938 11.4882C16.7268 11.1552 16.8938 10.9882 16.8938 10.7812C16.8938 10.5742 16.7268 10.4072 16.3938 10.0742L13.9273 7.60767C13.5943 7.27467 13.4273 7.10767 13.2203 7.10767C13.0133 7.10767 12.8463 7.27467 12.5133 7.60767Z" fill="#FCFCFC"/>
<path d="M5.21756 18.9896H18.8964" stroke="#FCFCFC" stroke-linecap="round"/>
</svg>
