<svg width="24" height="24" viewBox="0 0 24 24" fill="none" xmlns="http://www.w3.org/2000/svg">
<path opacity="0.24" d="M16.3469 5.22534L16.4827 5.24487C16.8106 5.30499 16.8447 5.31206 16.9368 5.37476C17.082 5.47374 17.2843 5.673 17.8137 6.2019C18.3453 6.73297 18.5338 6.92502 18.6233 7.05933C18.6503 7.09992 18.6636 7.12377 18.678 7.18042L18.7395 7.50171L18.7405 7.50366C18.7656 7.63783 18.7716 7.77451 18.759 7.90991L18.7405 8.04468L18.7395 8.04663C18.7048 8.23569 18.6062 8.43896 18.3635 8.73804C18.2395 8.89094 18.0879 9.05794 17.9026 9.25073L17.2405 9.92065L10.1926 16.9675C10.0074 17.1528 9.93293 17.2235 9.88501 17.2585L9.84302 17.2849C9.78858 17.3129 9.72237 17.3285 9.37915 17.3855L9.34204 17.3923L9.30493 17.4041L5.28442 18.7302L6.5813 14.6765L6.59204 14.6414L6.59888 14.6052C6.64176 14.3463 6.66115 14.2456 6.67993 14.1892L6.69946 14.1433L6.70044 14.1414C6.71385 14.1151 6.73079 14.0889 6.77563 14.0388L7.01685 13.7908L14.0637 6.7439C14.5796 6.22747 14.9406 5.86782 15.2463 5.61987C15.4702 5.43837 15.6404 5.33766 15.7913 5.28394L15.9377 5.24487C16.0728 5.21995 16.2106 5.21287 16.3469 5.22534Z" fill="#BFBFC8" stroke="#BFBFC8"/>
<path d="M12.5132 7.60767L6.67322 13.4477C6.44822 13.6727 6.33622 13.7847 6.26522 13.9237C6.19322 14.0627 6.16722 14.2197 6.11522 14.5337L4.78239 18.6578C4.73039 18.9718 4.70339 19.1298 4.79439 19.2208C4.88539 19.3118 5.04339 19.2848 5.35739 19.2328L9.46874 17.8862C9.78174 17.8342 9.93874 17.8082 10.0787 17.7362C10.2167 17.6652 10.3287 17.5532 10.5537 17.3282L16.3937 11.4882C16.7267 11.1552 16.8937 10.9882 16.8937 10.7812C16.8937 10.5742 16.7267 10.4072 16.3937 10.0742L13.9272 7.60767C13.5942 7.27467 13.4272 7.10767 13.2202 7.10767C13.0132 7.10767 12.8462 7.27467 12.5132 7.60767Z" fill="#BFBFC8"/>
<path d="M5.21753 18.9897H18.8964" stroke="#BFBFC8" stroke-linecap="round"/>
</svg>
