<svg width="327" height="104" viewBox="0 0 327 104" fill="none" xmlns="http://www.w3.org/2000/svg">
<g opacity="0.5">
<rect x="34.3685" width="258.633" height="41.5181" rx="11.7228" fill="#18181B"/>
<rect x="34.3685" y="10.5016" width="2.19802" height="20.5148" rx="1.09901" fill="#E53838"/>
<path d="M48.2893 13.6766C48.2893 10.979 50.4761 8.79211 53.1738 8.79211H100.39C103.088 8.79211 105.275 10.979 105.275 13.6766V13.6766C105.275 16.3742 103.088 18.5611 100.39 18.5611H53.1738C50.4761 18.5611 48.2893 16.3742 48.2893 13.6766V13.6766Z" fill="#313134"/>
<path d="M269.882 13.6766C269.882 10.979 272.069 8.79211 274.766 8.79211H276.395C279.092 8.79211 281.279 10.979 281.279 13.6766V13.6766C281.279 16.3742 279.092 18.5611 276.395 18.5611H274.766C272.069 18.5611 269.882 16.3742 269.882 13.6766V13.6766Z" fill="#313134"/>
<path d="M48.2893 27.8415C48.2893 25.1439 50.4762 22.957 53.1738 22.957H154.12C156.817 22.957 159.004 25.1439 159.004 27.8415V27.8415C159.004 30.5391 156.817 32.726 154.12 32.726H53.1738C50.4762 32.726 48.2893 30.5391 48.2893 27.8415V27.8415Z" fill="#313134"/>
<path d="M224.293 27.8415C224.293 25.1439 226.48 22.957 229.178 22.957H276.395C279.092 22.957 281.279 25.1439 281.279 27.8415V27.8415C281.279 30.5391 279.092 32.726 276.395 32.726H229.178C226.48 32.726 224.293 30.5391 224.293 27.8415V27.8415Z" fill="#313134"/>
</g>
<g opacity="0.5">
<rect x="34.3685" y="60.2421" width="258.633" height="41.5181" rx="11.7228" fill="#18181B"/>
<rect x="34.3685" y="70.7437" width="2.19802" height="20.5148" rx="1.09901" fill="#E53838"/>
<path d="M48.2893 73.9185C48.2893 71.2209 50.4761 69.0341 53.1738 69.0341H100.39C103.088 69.0341 105.275 71.2209 105.275 73.9185V73.9185C105.275 76.6162 103.088 78.803 100.39 78.803H53.1738C50.4761 78.803 48.2893 76.6162 48.2893 73.9185V73.9185Z" fill="#313134"/>
<path d="M269.882 73.9185C269.882 71.2209 272.069 69.0341 274.766 69.0341H276.395C279.092 69.0341 281.279 71.2209 281.279 73.9185V73.9185C281.279 76.6162 279.092 78.803 276.395 78.803H274.766C272.069 78.803 269.882 76.6162 269.882 73.9185V73.9185Z" fill="#313134"/>
<path d="M48.2893 88.0836C48.2893 85.386 50.4762 83.1991 53.1738 83.1991H154.12C156.817 83.1991 159.004 85.386 159.004 88.0836V88.0836C159.004 90.7812 156.817 92.9681 154.12 92.9681H53.1738C50.4762 92.9681 48.2893 90.7812 48.2893 88.0836V88.0836Z" fill="#313134"/>
<path d="M224.293 88.0836C224.293 85.386 226.48 83.1991 229.178 83.1991H276.395C279.092 83.1991 281.279 85.386 281.279 88.0836V88.0836C281.279 90.7812 279.092 92.9681 276.395 92.9681H229.178C226.48 92.9681 224.293 90.7812 224.293 88.0836V88.0836Z" fill="#313134"/>
</g>
<g filter="url(#filter0_d_437_3060)">
<rect x="20" y="27.6787" width="287.37" height="43.9603" rx="13.0253" fill="#18181B" shape-rendering="crispEdges"/>
<rect x="20" y="38.2618" width="2.44224" height="22.7942" rx="1.22112" fill="#346BFC"/>
<path d="M35.4674 42.3322C35.4674 39.6346 37.6543 37.4478 40.3519 37.4478H94.0812C96.7788 37.4478 98.9657 39.6346 98.9657 42.3322V42.3322C98.9657 45.0299 96.7788 47.2167 94.0812 47.2167H40.3519C37.6543 47.2167 35.4674 45.0299 35.4674 42.3322V42.3322Z" fill="#313134"/>
<path d="M282.134 42.3322C282.134 39.6346 284.321 37.4478 287.018 37.4478H289.461C292.158 37.4478 294.345 39.6346 294.345 42.3322V42.3322C294.345 45.0299 292.158 47.2167 289.461 47.2167H287.018C284.321 47.2167 282.134 45.0299 282.134 42.3322V42.3322Z" fill="#313134"/>
<path d="M35.4675 56.9857C35.4675 54.2881 37.6543 52.1012 40.3519 52.1012H153.509C156.207 52.1012 158.394 54.2881 158.394 56.9857V56.9857C158.394 59.6833 156.207 61.8702 153.509 61.8702H40.352C37.6543 61.8702 35.4675 59.6833 35.4675 56.9857V56.9857Z" fill="#313134"/>
<path d="M230.847 56.9857C230.847 54.2881 233.034 52.1012 235.731 52.1012H289.461C292.158 52.1012 294.345 54.2881 294.345 56.9857V56.9857C294.345 59.6833 292.158 61.8702 289.461 61.8702H235.731C233.034 61.8702 230.847 59.6833 230.847 56.9857V56.9857Z" fill="#313134"/>
</g>
<defs>
<filter id="filter0_d_437_3060" x="0.462074" y="8.14079" width="326.446" height="83.0362" filterUnits="userSpaceOnUse" color-interpolation-filters="sRGB">
<feFlood flood-opacity="0" result="BackgroundImageFix"/>
<feColorMatrix in="SourceAlpha" type="matrix" values="0 0 0 0 0 0 0 0 0 0 0 0 0 0 0 0 0 0 127 0" result="hardAlpha"/>
<feOffset/>
<feGaussianBlur stdDeviation="9.76896"/>
<feComposite in2="hardAlpha" operator="out"/>
<feColorMatrix type="matrix" values="0 0 0 0 0 0 0 0 0 0 0 0 0 0 0 0 0 0 0.32 0"/>
<feBlend mode="normal" in2="BackgroundImageFix" result="effect1_dropShadow_437_3060"/>
<feBlend mode="normal" in="SourceGraphic" in2="effect1_dropShadow_437_3060" result="shape"/>
</filter>
</defs>
</svg>
