<svg width="500" height="500" viewBox="0 0 500 500" fill="none" xmlns="http://www.w3.org/2000/svg">
<rect width="500" height="500" rx="132" fill="url(#paint0_linear_421_8)"/>
<g filter="url(#filter0_d_421_8)">
<path fill-rule="evenodd" clip-rule="evenodd" d="M242.071 199.131C267.947 199.131 288.924 220.108 288.924 245.984C288.924 272.022 268.364 286.73 258.083 290.829C248.891 293.869 239.063 295.514 228.851 295.514C216.213 295.514 204.164 292.994 193.178 288.43L166.044 333.625C165.816 334.004 165.584 334.373 165.355 334.736C164.088 336.748 162.953 338.549 163.539 340.667C164.078 342.614 165.703 344.26 167.891 345.674C185.662 357.161 206.84 363.829 229.575 363.829C292.417 363.829 343.36 312.885 343.36 250.043C343.36 223.632 334.362 199.323 319.264 180.014C298.438 153.379 265.282 136.214 228.851 136.214C192.255 136.214 162.588 165.882 162.588 202.478C162.588 221.848 170.899 239.278 184.151 251.394L202.245 221.292C210.511 207.989 225.257 199.131 242.071 199.131ZM132.842 336.748L170.159 274.669C149.202 257.61 135.815 231.607 135.815 202.478C135.815 151.095 178.138 109.441 229.52 109.441C307.149 109.441 370.079 172.372 370.079 250C370.079 327.628 307.149 390.558 229.52 390.558C192.619 390.558 159.04 376.339 133.962 353.08C131.602 350.891 129.921 348.803 129.921 345.187C129.921 341.57 132.842 336.748 132.842 336.748ZM224.485 236.286L207.176 265.115C213.968 267.465 221.26 268.741 228.851 268.741C235.851 268.741 242.597 267.656 248.931 265.644C253.337 263.648 262.151 256.922 262.151 245.984C262.151 234.894 253.161 225.904 242.071 225.904C234.548 225.904 227.924 230.162 224.485 236.286Z" fill="white"/>
</g>
<g opacity="0.4" filter="url(#filter1_f_421_8)">
<path fill-rule="evenodd" clip-rule="evenodd" d="M248.77 265.697C253.177 263.701 262.151 255.584 262.151 244.646C262.303 258.794 247.156 280.968 191.612 280.968C186.463 278.676 182.037 278.839 175.98 273.331C155.022 256.272 143.496 234.986 142.062 208.702L163.728 214.587C167.067 231.448 173.013 241.2 186.264 253.316C190.747 257.048 199.515 263.093 207.176 265.112C213.968 267.462 221.26 268.738 228.851 268.738C235.851 268.738 242.436 267.708 248.77 265.697Z" fill="url(#paint1_linear_421_8)"/>
</g>
<path fill-rule="evenodd" clip-rule="evenodd" d="M248.931 265.644C253.338 263.648 262.151 256.922 262.151 245.984C262.303 260.133 248.722 288.43 193.178 288.43C188.029 286.138 176.217 280.177 170.159 274.669C149.202 257.61 135.815 231.607 135.815 202.478H162.588C162.588 221.848 170.899 239.278 184.151 251.394C188.634 255.126 199.515 263.096 207.176 265.115C213.968 267.465 221.26 268.741 228.851 268.741C235.851 268.741 242.597 267.656 248.931 265.644Z" fill="url(#paint2_linear_421_8)"/>
<path fill-rule="evenodd" clip-rule="evenodd" d="M228.851 136.214C272.382 134.318 370.079 168.947 364.761 288.43C348.043 347.377 293.824 390.558 229.52 390.558C192.619 390.558 159.04 376.339 133.962 353.08C293.927 402.706 343.97 306.957 343.36 250.043C343.36 223.632 334.362 199.323 319.264 180.014C298.438 153.379 265.282 136.214 228.851 136.214Z" fill="url(#paint3_linear_421_8)"/>
<defs>
<filter id="filter0_d_421_8" x="109.921" y="89.4414" width="280.158" height="321.117" filterUnits="userSpaceOnUse" color-interpolation-filters="sRGB">
<feFlood flood-opacity="0" result="BackgroundImageFix"/>
<feColorMatrix in="SourceAlpha" type="matrix" values="0 0 0 0 0 0 0 0 0 0 0 0 0 0 0 0 0 0 127 0" result="hardAlpha"/>
<feOffset/>
<feGaussianBlur stdDeviation="10"/>
<feComposite in2="hardAlpha" operator="out"/>
<feColorMatrix type="matrix" values="0 0 0 0 0 0 0 0 0 0 0 0 0 0 0 0 0 0 0.17 0"/>
<feBlend mode="normal" in2="BackgroundImageFix" result="effect1_dropShadow_421_8"/>
<feBlend mode="normal" in="SourceGraphic" in2="effect1_dropShadow_421_8" result="shape"/>
</filter>
<filter id="filter1_f_421_8" x="130.062" y="196.702" width="144.09" height="96.2666" filterUnits="userSpaceOnUse" color-interpolation-filters="sRGB">
<feFlood flood-opacity="0" result="BackgroundImageFix"/>
<feBlend mode="normal" in="SourceGraphic" in2="BackgroundImageFix" result="shape"/>
<feGaussianBlur stdDeviation="6" result="effect1_foregroundBlur_421_8"/>
</filter>
<linearGradient id="paint0_linear_421_8" x1="500" y1="0" x2="0" y2="500" gradientUnits="userSpaceOnUse">
<stop stop-color="#42A7FF"/>
<stop offset="1" stop-color="#1B5DF8"/>
</linearGradient>
<linearGradient id="paint1_linear_421_8" x1="245.057" y1="269.838" x2="157.059" y2="225.136" gradientUnits="userSpaceOnUse">
<stop/>
<stop offset="1" stop-color="#666666" stop-opacity="0.49"/>
</linearGradient>
<linearGradient id="paint2_linear_421_8" x1="144.705" y1="233.622" x2="271.555" y2="282.725" gradientUnits="userSpaceOnUse">
<stop stop-color="white"/>
<stop offset="1" stop-color="#2D7DEE"/>
</linearGradient>
<linearGradient id="paint3_linear_421_8" x1="337.771" y1="172.007" x2="201.828" y2="376.163" gradientUnits="userSpaceOnUse">
<stop stop-color="#3183EC"/>
<stop offset="0.490385" stop-color="white"/>
</linearGradient>
</defs>
</svg>
