<svg width="500" height="500" viewBox="0 0 500 500" fill="none" xmlns="http://www.w3.org/2000/svg">
<rect width="500" height="500" rx="120" fill="url(#paint0_linear_164_20)"/>
<g opacity="0.22" filter="url(#filter0_f_164_20)">
<path d="M217.841 105.712C235.799 88.6986 264.121 88.9208 281.809 106.417L409.282 232.504C427.414 250.438 427.493 279.702 409.46 297.735L312.471 394.723C297.317 409.877 272.998 410.44 257.166 396.172L256.418 395.481C239.998 379.925 239.647 353.887 255.641 337.893L323.373 270.16C326.105 267.428 326.084 262.992 323.326 260.287C320.702 257.712 316.547 257.639 313.835 260.061L313.577 260.303L246.556 326.497C231.049 341.812 206.121 341.849 190.569 326.58C174.813 311.11 174.619 285.783 190.137 270.074L255.742 203.658L256.043 203.339C258.946 200.083 258.886 195.134 255.906 191.949L255.599 191.636C252.276 188.431 246.996 188.484 243.739 191.756L147.56 288.376C142.102 293.859 142.126 302.731 147.615 308.184L260.661 420.498C266.929 426.726 266.962 436.856 260.734 443.125C254.506 449.393 244.376 449.427 238.107 443.199L125.061 330.885C107.027 312.968 106.946 283.818 124.881 265.8L221.06 169.18C236.648 153.521 261.918 153.266 277.818 168.608L278.566 169.349C293.789 184.807 294.086 209.57 279.238 225.388L278.508 226.146L212.902 292.562C209.831 295.672 209.87 300.684 212.988 303.746C216.066 306.768 221 306.761 224.069 303.729L291.091 237.536L291.807 236.845C306.983 222.59 330.791 222.78 345.737 237.445C361.195 252.611 361.314 277.475 346.001 292.788L278.267 360.52C275.01 363.778 275.081 369.082 278.426 372.251L278.733 372.527C281.96 375.293 286.806 375.134 289.844 372.096L386.833 275.107C392.321 269.619 392.296 260.713 386.778 255.255L259.306 129.168C253.922 123.843 245.302 123.775 239.837 128.953L239.579 129.203L91.8173 276.425C85.5575 282.662 75.4273 282.644 69.1903 276.384C62.9534 270.125 62.9717 259.994 69.2313 253.757L216.993 106.535L217.841 105.712Z" fill="#09090B"/>
</g>
<path d="M224.012 88.597C238.457 74.9126 261.237 75.0916 275.465 89.1644L411.461 223.682C426.045 238.108 426.11 261.645 411.604 276.151L307.469 380.286C295.024 392.73 275.053 393.193 262.053 381.476L261.438 380.909L255.36 375.15C241.876 362.375 241.587 340.993 254.721 327.859L327.599 254.98L327.849 254.717C330.267 252.04 330.247 247.949 327.805 245.294L327.552 245.034L323.355 240.916C320.626 238.239 316.254 238.247 313.534 240.933L244.52 309.095C230.364 323.077 207.741 323.328 193.28 309.825L192.598 309.171L184.156 300.883C174.283 291.189 174.161 275.319 183.885 265.475L261.042 187.366L261.291 187.1C263.775 184.314 263.64 180.031 260.923 177.409L254.527 171.238C251.776 168.583 247.402 168.626 244.705 171.336L145.434 271.063C138.806 277.721 138.836 288.494 145.501 295.116L258.546 407.429L258.781 407.669C263.639 412.746 263.587 420.8 258.606 425.814C253.625 430.828 245.57 430.933 240.462 426.108L240.222 425.873L127.176 313.561C110.317 296.812 110.242 269.562 127.008 252.72L226.278 152.994C238.995 140.219 259.61 140.012 272.581 152.528L278.976 158.699C291.994 171.259 292.442 191.905 280.135 205.018L279.539 205.637L203.086 283.033L210.813 290.619L211.223 291.001C215.528 294.824 222.108 294.687 226.25 290.596L295.264 222.434C308.087 209.769 328.699 209.735 341.564 222.357L345.761 226.475L346.365 227.082C358.66 239.776 358.756 259.94 346.583 272.75L345.984 273.365L273.105 346.244C270.32 349.03 270.381 353.565 273.241 356.275L279.32 362.034L279.583 362.27C282.342 364.635 286.486 364.499 289.084 361.902L393.22 257.766C397.532 253.454 397.513 246.456 393.178 242.167L257.181 107.649C252.884 103.399 245.963 103.412 241.681 107.677L89.7 259.104C84.614 264.171 76.3828 264.157 71.3153 259.071C66.2478 253.985 66.2626 245.753 71.3485 240.686L223.33 89.2592L224.012 88.597Z" fill="white"/>
<defs>
<filter id="filter0_f_164_20" x="44.5246" y="73.1209" width="398.409" height="394.727" filterUnits="userSpaceOnUse" color-interpolation-filters="sRGB">
<feFlood flood-opacity="0" result="BackgroundImageFix"/>
<feBlend mode="normal" in="SourceGraphic" in2="BackgroundImageFix" result="shape"/>
<feGaussianBlur stdDeviation="10" result="effect1_foregroundBlur_164_20"/>
</filter>
<linearGradient id="paint0_linear_164_20" x1="500" y1="0" x2="97.2251" y2="420.098" gradientUnits="userSpaceOnUse">
<stop stop-color="#2C9BFC"/>
<stop offset="1" stop-color="#1C5BEE"/>
</linearGradient>
</defs>
</svg>
