<svg width="24" height="24" viewBox="0 0 24 24" fill="none" xmlns="http://www.w3.org/2000/svg">
<path d="M19.1625 3.27309C19.1316 3.19256 19.0775 3.12338 19.0072 3.07462C18.937 3.02585 18.8539 2.99976 18.7688 2.99976C18.6837 2.99976 18.6006 3.02585 18.5303 3.07462C18.4601 3.12338 18.406 3.19256 18.3751 3.27309L17.9988 4.24631C17.9779 4.30142 17.946 4.35153 17.905 4.39345C17.864 4.43537 17.8149 4.46819 17.7608 4.48984L16.8062 4.87379C16.7272 4.90578 16.6594 4.96112 16.6117 5.03266C16.5639 5.1042 16.5384 5.18864 16.5384 5.27508C16.5384 5.36151 16.5639 5.44596 16.6117 5.5175C16.6594 5.58904 16.7272 5.64438 16.8062 5.67637L17.7608 6.06032C17.8149 6.08187 17.8639 6.11455 17.9049 6.15632C17.9458 6.19808 17.9778 6.24801 17.9988 6.30296L18.3751 7.27529C18.5168 7.6397 19.0225 7.6397 19.1625 7.27529L19.5388 6.30207C19.5599 6.24703 19.592 6.19705 19.6331 6.15528C19.6742 6.11352 19.7234 6.08088 19.7776 6.05943L20.7322 5.67548C20.8113 5.64349 20.8791 5.58815 20.9268 5.51661C20.9746 5.44507 21.0001 5.36063 21.0001 5.27419C21.0001 5.18775 20.9746 5.10331 20.9268 5.03177C20.8791 4.96023 20.8113 4.90489 20.7322 4.8729L19.7776 4.48895C19.7234 4.46741 19.6741 4.43463 19.633 4.3927C19.5919 4.35078 19.5598 4.30062 19.5388 4.24542L19.1625 3.27309ZM15.779 8.44849C15.7481 8.36796 15.694 8.29879 15.6237 8.25002C15.5535 8.20125 15.4704 8.17516 15.3853 8.17516C15.3002 8.17516 15.2171 8.20125 15.1469 8.25002C15.0766 8.29879 15.0225 8.36796 14.9916 8.44849L14.8542 8.80312C14.8332 8.85807 14.8012 8.908 14.7602 8.94976C14.7193 8.99153 14.6702 9.02421 14.6162 9.04576L14.268 9.18619C14.1889 9.21817 14.1211 9.27351 14.0734 9.34505C14.0256 9.41659 14.0001 9.50104 14.0001 9.58747C14.0001 9.67391 14.0256 9.75836 14.0734 9.8299C14.1211 9.90144 14.1889 9.95678 14.268 9.98876L14.6162 10.1283C14.7256 10.1727 14.8113 10.2598 14.8542 10.3718L14.9916 10.7265C15.1324 11.0909 15.6382 11.0909 15.779 10.7265L15.9164 10.3709C15.9374 10.316 15.9694 10.2661 16.0104 10.2243C16.0513 10.1825 16.1004 10.1498 16.1544 10.1283L16.5026 9.98876C16.5817 9.95678 16.6495 9.90144 16.6972 9.8299C16.745 9.75836 16.7705 9.67391 16.7705 9.58747C16.7705 9.50104 16.745 9.41659 16.6972 9.34505C16.6495 9.27351 16.5817 9.21817 16.5026 9.18619L16.1544 9.04576C16.1004 9.02421 16.0513 8.99153 16.0104 8.94976C15.9694 8.908 15.9374 8.85807 15.9164 8.80312L15.779 8.44849Z" fill="white"/>
<path opacity="0.32" d="M12.0001 20.9998C16.9708 20.9998 21.0001 16.9705 21.0001 11.9998C21.0001 11.5831 20.3755 11.5138 20.1604 11.8711C19.7016 12.631 19.0759 13.2765 18.3307 13.7588C17.5855 14.2411 16.7403 14.5474 15.8591 14.6547C14.978 14.7619 14.084 14.6672 13.2448 14.3778C12.4057 14.0884 11.6434 13.6118 11.0157 12.9841C10.3881 12.3564 9.91148 11.5942 9.62204 10.755C9.33261 9.91587 9.23793 9.02186 9.34518 8.14071C9.45243 7.25955 9.75879 6.41436 10.2411 5.66914C10.7233 4.92393 11.3689 4.29824 12.1288 3.83946C12.4861 3.62346 12.4168 2.99976 12.0001 2.99976C7.02939 2.99976 3.00009 7.02906 3.00009 11.9998C3.00009 16.9705 7.02939 20.9998 12.0001 20.9998Z" fill="white"/>
</svg>
