<svg width="24" height="24" viewBox="0 0 24 24" fill="none" xmlns="http://www.w3.org/2000/svg">
<path opacity="0.32" fill-rule="evenodd" clip-rule="evenodd" d="M15.2105 7.57902C15.0334 7.40199 14.3991 7.16104 14.1041 7.0627C9.38342 5.25557 4.31383 8.46413 3.44574 10.972C2.44998 13.8486 3.26134 15.4713 4.51526 17.0203C5.5184 18.2595 6.26091 20.192 6.50678 21.0034H8.27702L8.94087 19.4913C10.6816 19.9928 12.6903 19.7003 13.4771 19.4913L14.141 21.0034H15.8374L16.7963 17.9054C17.6814 17.4629 18.4928 16.2212 18.7878 15.6557L21.0006 15.2869V11.9309L19.1198 11.5252C18.8837 10.6401 18.1363 9.68118 17.7921 9.31237L18.8616 6.50949C17.5929 6.24396 15.862 7.11187 15.2105 7.57902ZM10.7995 7.93146C9.70172 8.01762 8.73205 8.31347 8.18199 8.55597C8.07016 8.60527 7.93954 8.55458 7.89024 8.44276C7.84095 8.33093 7.89163 8.20032 8.00346 8.15102C8.59668 7.88949 9.61484 7.58051 10.7649 7.49026C11.9146 7.40003 13.2164 7.52692 14.3589 8.15994C14.4658 8.21917 14.5045 8.35384 14.4452 8.46074C14.386 8.56763 14.2513 8.60628 14.1444 8.54705C13.1037 7.97041 11.8977 7.84528 10.7995 7.93146ZM16.9438 11.7834C17.2289 11.7834 17.4601 11.5522 17.4601 11.267C17.4601 10.9819 17.2289 10.7507 16.9438 10.7507C16.6586 10.7507 16.4275 10.9819 16.4275 11.267C16.4275 11.5522 16.6586 11.7834 16.9438 11.7834Z" fill="#FCFCFC"/>
<path d="M10.7899 11.2197C10.7132 11.1457 10.6091 11.1041 10.5006 11.1041C10.3921 11.1041 10.2881 11.1457 10.2114 11.2197C10.1347 11.2937 10.0915 11.3941 10.0915 11.4988V11.5041C9.49755 11.6483 9.00064 12.1004 9.00064 12.7267C9.00064 13.4935 9.74519 13.9988 10.5006 13.9988C10.9501 13.9988 11.1825 14.2793 11.1825 14.4814C11.1825 14.6835 10.9501 14.9635 10.5006 14.9635C10.0512 14.9635 9.81882 14.6835 9.81882 14.4814C9.81882 14.3767 9.77572 14.2763 9.699 14.2023C9.62228 14.1283 9.51823 14.0867 9.40973 14.0867C9.30123 14.0867 9.19718 14.1283 9.12046 14.2023C9.04374 14.2763 9.00064 14.3767 9.00064 14.4814C9.00064 15.1077 9.49755 15.5599 10.0915 15.7041V15.7093C10.0915 15.814 10.1347 15.9144 10.2114 15.9884C10.2881 16.0625 10.3921 16.1041 10.5006 16.1041C10.6091 16.1041 10.7132 16.0625 10.7899 15.9884C10.8666 15.9144 10.9097 15.814 10.9097 15.7093V15.7041C11.5037 15.5593 12.0006 15.1077 12.0006 14.4814C12.0006 13.7146 11.2561 13.2093 10.5006 13.2093C10.0512 13.2093 9.81882 12.9288 9.81882 12.7267C9.81882 12.5246 10.0512 12.2446 10.5006 12.2446C10.9501 12.2446 11.1825 12.5246 11.1825 12.7267C11.1825 12.8314 11.2256 12.9318 11.3023 13.0058C11.379 13.0798 11.4831 13.1214 11.5916 13.1214C11.7 13.1214 11.8041 13.0798 11.8808 13.0058C11.9575 12.9318 12.0006 12.8314 12.0006 12.7267C12.0006 12.1004 11.5037 11.6483 10.9097 11.5041V11.4988C10.9097 11.3941 10.8666 11.2937 10.7899 11.2197Z" fill="#FCFCFC"/>
<circle cx="9" cy="4" r="1" fill="#FCFCFC"/>
<circle cx="12" cy="6" r="1" fill="#FCFCFC"/>
</svg>
