<svg width="24" height="24" viewBox="0 0 24 24" fill="none" xmlns="http://www.w3.org/2000/svg">
<path d="M4.00092 6.81977C4.00092 6.3981 4.31717 6.05527 4.70767 6.05527H7.1506C7.63552 6.04152 8.06361 5.70877 8.22861 5.2156L8.25611 5.12851L8.36153 4.78751C8.42569 4.57851 8.48161 4.39609 8.56044 4.23292C8.87028 3.58942 9.44412 3.143 10.1069 3.02842C10.2755 3 10.4525 3 10.6569 3H13.8451C14.0495 3 14.2273 3 14.3951 3.02842C15.0578 3.143 15.6326 3.58942 15.9415 4.23292C16.0203 4.39609 16.0762 4.57851 16.1404 4.78751L16.2458 5.12851L16.2733 5.2156C16.4383 5.70877 16.9517 6.04244 17.4375 6.05527H19.7933C20.1848 6.05527 20.501 6.39719 20.501 6.81977C20.501 7.24236 20.1848 7.58336 19.7943 7.58336H4.70675C4.31625 7.58336 4.00092 7.24144 4.00092 6.81977Z" fill="#FCFCFC"/>
<path opacity="0.32" d="M12.1199 20.9335H12.8413C15.3227 20.9335 16.563 20.9335 17.3706 20.1424C18.1773 19.3504 18.2598 18.0524 18.4248 15.4573L18.6631 11.7163C18.7529 10.3074 18.7979 9.60341 18.3927 9.15699C17.9875 8.71057 17.3046 8.71057 15.9369 8.71057H9.02429C7.65753 8.71057 6.9737 8.71057 6.56853 9.15699C6.16336 9.60341 6.20919 10.3074 6.29811 11.7163L6.53644 15.4564C6.70144 18.0533 6.78395 19.3504 7.59062 20.1424C8.39729 20.9344 9.63846 20.9335 12.1199 20.9335Z" fill="#FCFCFC"/>
<path fill-rule="evenodd" clip-rule="evenodd" d="M10.1197 11.2919C10.4983 11.2516 10.8347 11.5422 10.8723 11.94L11.3306 16.7644C11.3682 17.1614 11.0923 17.5161 10.7155 17.5565C10.3379 17.5959 10.0005 17.3062 9.96295 16.9084L9.50462 12.0839C9.46703 11.6861 9.74295 11.3313 10.1197 11.2919ZM14.8406 11.2919C15.2182 11.3313 15.4942 11.6861 15.4557 12.0839L14.9973 16.9084C14.9607 17.3062 14.6233 17.5959 14.2456 17.5565C13.8671 17.5161 13.5921 17.1623 13.6296 16.7644L14.088 11.9391C14.1256 11.5422 14.4629 11.2516 14.8397 11.291" fill="#FCFCFC"/>
</svg>
